<svg width="256" height="256" xmlns="http://www.w3.org/2000/svg" class="logo logo--big" xml:space="preserve" fill="currentColor">

 <g>
  <title>Layer 1</title>
  <g id="svg_1" transform="translate(1.40659 1.40659) scale(2.81 2.81)">
   <path id="svg_2" stroke-linecap="round" d="m89.034,43.825l-14.582,-16.402c-0.725,-0.816 -1.767,-1.284 -2.859,-1.284l-13.337,0l0,-0.448c0,-3.723 -3.029,-6.752 -6.751,-6.752l-44.753,0c-3.723,0.001 -6.752,3.03 -6.752,6.753l0,35.098c0,2.219 1.805,4.024 4.023,4.024l10.374,0c0.827,3.573 4.029,6.247 7.85,6.247s7.023,-2.674 7.85,-6.247l25.193,0l2.967,0l10.701,0c0.827,3.573 4.029,6.247 7.85,6.247s7.023,-2.674 7.85,-6.247l1.519,0c2.109,0 3.825,-1.715 3.825,-3.825l0,-14.622c-0.002,-0.937 -0.345,-1.84 -0.968,-2.542zm-3.821,0.168l-17.277,0c-0.336,0 -0.609,-0.274 -0.609,-0.61l0,-7.785c0,-0.336 0.273,-0.609 0.609,-0.609l9.272,0l8.005,9.004zm-78.461,-22.086l44.753,0c2.086,0 3.784,1.698 3.784,3.785l0,0.448l0,22.322l-52.322,0l0,-22.77c0,-2.087 1.698,-3.785 3.785,-3.785zm15.494,46.186c-2.81,0 -5.097,-2.286 -5.097,-5.097s2.287,-5.097 5.097,-5.097s5.097,2.286 5.097,5.097s-2.286,5.097 -5.097,5.097zm7.972,-6.247c-0.561,-3.902 -3.917,-6.913 -7.972,-6.913s-7.411,3.011 -7.972,6.913l-10.251,0c-0.582,0 -1.056,-0.474 -1.056,-1.057l0,-9.361l52.322,0l0,10.417l-25.071,0l0,0.001zm46.589,6.247c-2.811,0 -5.097,-2.286 -5.097,-5.097s2.286,-5.097 5.097,-5.097s5.097,2.286 5.097,5.097s-2.287,5.097 -5.097,5.097zm9.368,-6.247l-1.397,0c-0.561,-3.902 -3.917,-6.913 -7.972,-6.913s-7.411,3.011 -7.972,6.913l-10.578,0l0,-32.74l13.337,0c0.244,0 0.478,0.105 0.641,0.288l2.335,2.627l-6.634,0c-1.972,0 -3.576,1.604 -3.576,3.576l0,7.785c0,1.972 1.604,3.577 3.576,3.577l19.097,0l0,14.029c0.001,0.474 -0.383,0.858 -0.857,0.858z"/>
  </g>
  <text font-weight="bold" transform="matrix(1.28996 0 0 1.77023 -10.8185 -49.093)" stroke="#000" xml:space="preserve" text-anchor="start" font-family="'Commissioner'" font-size="27" id="svg_3" y="94" x="28" stroke-width="0" fill="#000000">ERROR</text>
 </g>
</svg>